<?xml version="1.0" encoding="UTF-8"?>
<svg width="80" height="80" viewBox="0 0 80 80" fill="none" xmlns="http://www.w3.org/2000/svg">
  <!-- Corner flourish for decorative borders -->
  <g transform="translate(40,40)">
    <!-- Main spiral -->
    <path d="M0 0C0 -15 15 -30 30 -20C35 -15 30 -5 20 -10C10 -15 5 -5 10 5C15 15 25 10 20 0C15 -10 5 -5 0 0Z" 
          fill="none" stroke="#d4af37" stroke-width="1.5" opacity="0.9"/>
    
    <!-- Inner decorative swirl -->
    <path d="M5 -5C10 -10 15 -5 10 0C5 5 0 0 5 -5Z" 
          fill="#d4af37" opacity="0.6"/>
    
    <!-- Outer leaf details -->
    <path d="M20 -15C25 -20 30 -15 25 -10C20 -5 15 -10 20 -15Z" 
          fill="#d4af37" opacity="0.4"/>
    <path d="M-5 15C-10 20 -15 15 -10 10C-5 5 0 10 -5 15Z" 
          fill="#d4af37" opacity="0.4"/>
    
    <!-- Central ornamental dot -->
    <circle cx="0" cy="0" r="2" fill="#d4af37"/>
    <circle cx="0" cy="0" r="1" fill="#722f37"/>
    
    <!-- Radiating small elements -->
    <circle cx="15" cy="-8" r="1" fill="#d4af37" opacity="0.7"/>
    <circle cx="-8" cy="15" r="1" fill="#d4af37" opacity="0.7"/>
    <circle cx="8" cy="8" r="0.8" fill="#d4af37" opacity="0.5"/>
    <circle cx="-10" cy="-10" r="0.8" fill="#d4af37" opacity="0.5"/>
  </g>
</svg>
