<?xml version="1.0" encoding="UTF-8"?>
<svg width="120" height="140" viewBox="0 0 120 140" fill="none" xmlns="http://www.w3.org/2000/svg">
  <!-- Shield background -->
  <path d="M60 10L20 25V75C20 95 35 115 60 130C85 115 100 95 100 75V25L60 10Z" fill="#722f37" stroke="#d4af37" stroke-width="2"/>
  
  <!-- Inner decorative elements -->
  <path d="M60 20L30 32V72C30 88 42 104 60 116C78 104 90 88 90 72V32L60 20Z" fill="#0d1117" stroke="#d4af37" stroke-width="1" opacity="0.8"/>
  
  <!-- Central emblem - Quill and Book -->
  <g transform="translate(60,70)">
    <!-- Book -->
    <rect x="-12" y="-5" width="24" height="16" rx="2" fill="#d4af37"/>
    <rect x="-10" y="-3" width="20" height="12" rx="1" fill="#f5f0e1"/>
    <line x1="-8" y1="0" x2="8" y2="0" stroke="#722f37" stroke-width="0.5"/>
    <line x1="-8" y1="3" x2="8" y2="3" stroke="#722f37" stroke-width="0.5"/>
    <line x1="-8" y1="6" x2="8" y2="6" stroke="#722f37" stroke-width="0.5"/>
    
    <!-- Quill -->
    <path d="M-15 -15L-5 -5L-8 -2L-18 -12Z" fill="#f5f0e1"/>
    <circle cx="-16" cy="-16" r="1" fill="#722f37"/>
  </g>
  
  <!-- Corner flourishes -->
  <g transform="translate(35,45)">
    <path d="M0 0C-5 -5 -10 -3 -8 2C-6 7 -2 5 0 0Z" fill="#d4af37" opacity="0.7"/>
  </g>
  <g transform="translate(85,45) scale(-1,1)">
    <path d="M0 0C-5 -5 -10 -3 -8 2C-6 7 -2 5 0 0Z" fill="#d4af37" opacity="0.7"/>
  </g>
  
  <!-- Crown at top -->
  <g transform="translate(60,25)">
    <path d="M-8 0L-4 -8L0 -4L4 -8L8 0L6 4L-6 4Z" fill="#d4af37"/>
    <circle cx="-4" cy="-6" r="1.5" fill="#f5f0e1"/>
    <circle cx="0" cy="-2" r="1.5" fill="#f5f0e1"/>
    <circle cx="4" cy="-6" r="1.5" fill="#f5f0e1"/>
  </g>
  
  <!-- Bottom banner -->
  <g transform="translate(60,100)">
    <path d="M-20 0L20 0L18 8L2 6L0 10L-2 6L-18 8Z" fill="#d4af37"/>
    <text x="0" y="5" text-anchor="middle" font-family="serif" font-size="6" fill="#722f37">CITE AI</text>
  </g>
</svg>
